#!OML:ASF H:\GeneralSubjects\Female5\Project 1\Capture day 1\Session 1\Female5.ASF
:FULLY-SPECIFIED
:DEGREES
176
root 2.7952 16.1813 1.12519 181.388 -41.0263 165.078
lowerback 19.2116 0.358305 9.4215
upperback -3.5312 3.16011 3.97563
thorax -14.6911 0.762106 -1.76598
lowerneck -15.6003 7.88174 7.83532
upperneck 28.4179 11.9245 -11.49
head 13.4031 4.28862 -3.92853
rclavicle 6.71892e-014 -1.55847e-013
rhumerus -95.3251 32.8093 -120.071
rradius 62.2007
rwrist -19.0329
rhand -33.239 6.05183
rfingers 7.12502
rthumb -6.4449 -23.8301
lclavicle 6.71892e-014 -1.55847e-013
lhumerus -55.3086 -6.25113 86.4169
lradius 51.8858
lwrist -4.81749
lhand -34.8364 28.7554
lfingers 7.12502
lthumb -7.98685 58.5845
rfemur -44.5743 -9.07541 17.3132
rtibia 88.0516
rfoot 96.5753 -27.5264
rtoes 48.2682
lfemur -32.7255 25.0301 -39.5001
ltibia 89.1292
lfoot 90.0319 -45.7202
ltoes -67.2454
177
root 2.76059 16.1892 1.12437 181.39 -40.7919 165.242
lowerback 18.9703 0.327528 9.50394
upperback -3.54646 3.11116 4.06576
thorax -14.571 0.739979 -1.68846
lowerneck -15.1751 7.62776 7.56733
upperneck 28.4304 11.4711 -10.9945
head 13.198 4.13874 -3.77739
rclavicle -3.57812e-014 -9.54166e-015
rhumerus -95.3563 32.5962 -119.606
rradius 62.6187
rwrist -19.3246
rhand -33.3108 5.09201
rfingers 7.12502
rthumb -6.51421 -24.7878
lclavicle -3.57812e-014 -9.54166e-015
lhumerus -55.6561 -6.28956 86.3147
lradius 51.9489
lwrist -4.8859
lhand -34.7001 28.9714
lfingers 7.12502
lthumb -7.85533 58.8054
rfemur -43.7132 -8.93548 17.4081
rtibia 88.4242
rfoot 92.9944 -33.9377
rtoes 47.8325
lfemur -32.6392 25.5233 -39.465
ltibia 88.7536
lfoot 78.141 -52.0964
ltoes -68.9518
178
root 2.72845 16.1975 1.12397 181.575 -40.6354 165.211
lowerback 18.6933 0.313481 9.41064
upperback -3.49784 3.02934 4.0989
thorax -14.3584 0.722805 -1.57052
lowerneck -16.3276 8.16414 9.15882
upperneck 29.01 11.9213 -11.2243
head 13.8894 4.44355 -4.04503
rclavicle 1.15295e-014 5.725e-014
rhumerus -94.9536 32.4055 -118.735
rradius 62.8208
rwrist -19.0448
rhand -33.2099 4.47245
rfingers 7.12502
rthumb -6.41685 -25.4104
lclavicle 1.15295e-014 5.725e-014
lhumerus -55.7232 -6.37539 86.0592
lradius 52.0532
lwrist -5.05983
lhand -34.3733 28.9347
lfingers 7.12502
lthumb -7.53992 58.7803
rfemur -42.9537 -8.82224 17.2511
rtibia 88.7328
rfoot 88.6285 -41.3075
rtoes 47.3658
lfemur -32.6976 26.0378 -39.6675
ltibia 88.5156
lfoot 60.717 -54.6308
ltoes -71.1563
179
root 2.70429 16.2028 1.12548 181.807 -40.6033 165.087
lowerback 18.5405 0.289233 8.88731
upperback -3.3324 2.85134 4.25264
thorax -14.1128 0.706434 -1.05264
lowerneck -17.0949 8.11126 9.32805
upperneck 29.3657 11.7504 -11.1212
head 14.1939 4.37043 -4.05824
rclavicle -5.24792e-014 -8.5875e-014
rhumerus -94.5163 32.5982 -117.729
rradius 63.1487
rwrist -18.6374
rhand -33.0469 4.26062
rfingers 7.12502
rthumb -6.25946 -25.6269
lclavicle -5.24792e-014 -8.5875e-014
lhumerus -55.2153 -6.18811 85.681
lradius 51.7756
lwrist -5.5418
lhand -34.5242 28.4043
lfingers 7.12502
lthumb -7.68552 58.2446
rfemur -42.3434 -8.85401 17.0455
rtibia 88.9603
rfoot 82.9241 -49.3328
rtoes 45.9348
lfemur -32.8612 26.5031 -39.9085
ltibia 88.4291
lfoot 45.2281 -55.476
ltoes -71.1634
180
root 2.66098 16.2067 1.11243 181.891 -40.4071 165.285
lowerback 18.0669 0.315009 8.93549
upperback -3.38218 2.84238 4.32671
thorax -13.8901 0.708024 -0.985495
lowerneck -16.6819 7.85496 9.12645
upperneck 29.5348 11.2589 -10.5491
head 14.0459 4.21743 -3.89915
rclavicle 1.51076e-014 -7.31528e-014
rhumerus -94.5917 32.2574 -116.976
rradius 63.4525
rwrist -18.1378
rhand -33.1075 4.09684
rfingers 7.12502
rthumb -6.31797 -25.7889
lclavicle 1.51076e-014 -7.31528e-014
lhumerus -55.2277 -6.15699 85.0777
lradius 51.6513
lwrist -6.36852
lhand -34.6753 27.846
lfingers 7.12502
lthumb -7.83134 57.681
rfemur -41.9302 -8.88935 17.1646
rtibia 89.1927
rfoot 74.0995 -57.2097
rtoes 44.8807
lfemur -32.9139 26.91 -39.7432
ltibia 88.2488
lfoot 29.7779 -54.4093
ltoes -71.5487
